<svg width="32" height="32" viewBox="0 0 32 32" fill="none" xmlns="http://www.w3.org/2000/svg">
<circle cx="16" cy="16" r="15" stroke="#C4A676"/>
<path fill-rule="evenodd" clip-rule="evenodd" d="M17.7217 9C15.5878 9 14.2084 10.4287 14.2084 12.6394V14.3177H12.2983C12.1339 14.3177 12 14.4521 12 14.6188V17.0506C12 17.2165 12.1339 17.3517 12.2983 17.3517H14.2084V23.4869C14.2084 23.6529 14.3423 23.7881 14.5074 23.7881H16.9985C17.1636 23.7881 17.2975 23.6529 17.2975 23.4869V17.3517H19.5305C19.6956 17.3517 19.829 17.2165 19.829 17.0506L19.8303 14.6188C19.8303 14.5392 19.7983 14.4627 19.7425 14.4056C19.6867 14.3492 19.6109 14.3177 19.5312 14.3177H17.2975V12.895C17.2975 12.2113 17.459 11.8642 18.3408 11.8642L19.6206 11.8635C19.7857 11.8635 19.9189 11.7283 19.9189 11.5623V9.305C19.9189 9.13808 19.7857 9.00365 19.6213 9.00288L17.7217 9Z" fill="#C4A676"/>
</svg>
