<svg width="20" height="14" viewBox="0 0 20 14" fill="none" xmlns="http://www.w3.org/2000/svg">
<path fill-rule="evenodd" clip-rule="evenodd" d="M0 0.5C0 0.223858 0.223858 0 0.5 0H19.5C19.7761 0 20 0.223858 20 0.5C20 0.776142 19.7761 1 19.5 1H0.5C0.223857 1 0 0.776142 0 0.5ZM0 7C0 6.72386 0.223858 6.5 0.5 6.5H15.5C15.7761 6.5 16 6.72386 16 7C16 7.27614 15.7761 7.5 15.5 7.5H0.5C0.223858 7.5 0 7.27614 0 7ZM0.5 13C0.223858 13 0 13.2239 0 13.5C0 13.7761 0.223857 14 0.5 14H19.5C19.7761 14 20 13.7761 20 13.5C20 13.2239 19.7761 13 19.5 13H0.5Z" fill="white"/>
</svg>
