<svg width="32" height="32" viewBox="0 0 32 32" fill="none" xmlns="http://www.w3.org/2000/svg">
<circle cx="16" cy="16" r="15" stroke="#C4A676"/>
<path fill-rule="evenodd" clip-rule="evenodd" d="M22.9822 11.1547C23.7017 10.7289 24.2542 10.0549 24.5143 9.25155C23.841 9.64568 23.0953 9.93211 22.3016 10.0862C21.6661 9.41767 20.7605 9 19.7583 9C17.8341 9 16.2739 10.5402 16.2739 12.4399C16.2739 12.7095 16.3048 12.972 16.3643 13.2239C13.4685 13.0803 10.901 11.7109 9.18254 9.62955C8.88255 10.1377 8.71072 10.7286 8.71072 11.3591C8.71072 12.5524 9.32571 13.6054 10.2607 14.2223C9.68947 14.2044 9.15223 14.0496 8.68253 13.792C8.6822 13.8064 8.6822 13.8208 8.6822 13.8354C8.6822 15.5021 9.88335 16.8923 11.4772 17.2084C11.1849 17.2869 10.877 17.3291 10.5592 17.3291C10.3348 17.3291 10.1164 17.3075 9.90359 17.2672C10.347 18.634 11.6339 19.6286 13.1586 19.6562C11.9661 20.579 10.4637 21.129 8.83122 21.129C8.54989 21.129 8.27258 21.1127 8 21.0806C9.54194 22.0569 11.3734 22.6263 13.3412 22.6263C19.7502 22.6263 23.2548 17.3846 23.2548 12.8387C23.2548 12.6897 23.2514 12.5413 23.2448 12.3936C23.9257 11.9087 24.5164 11.3028 24.9835 10.6129C24.3586 10.8866 23.6871 11.0715 22.9822 11.1547Z" fill="#C4A676"/>
</svg>
