<svg width="32" height="32" viewBox="0 0 32 32" fill="none" xmlns="http://www.w3.org/2000/svg">
<circle cx="16" cy="16" r="15" stroke="#C4A676"/>
<path fill-rule="evenodd" clip-rule="evenodd" d="M21.5053 15.4V13.4816H20.2405V15.4H18.3474V16.6816H20.2405V18.6H21.5053V16.6816H23.3984V15.4H21.5053ZM16.6421 17.5752L15.9482 17.0624C15.6947 16.872 15.4421 16.616 15.4421 16.1688C15.4421 15.7184 15.7571 15.3376 16.0745 15.144C16.8947 14.5032 17.715 13.8 17.715 12.3904C17.715 11.0472 16.8947 10.2816 16.4534 9.8968H17.5271L18.2858 9H14.3692C11.5903 9 10.2 10.7904 10.2 12.7128C10.2 14.184 11.3376 15.784 13.3579 15.784H13.8632C13.7984 15.9752 13.6105 16.2968 13.6105 16.616C13.6105 17.256 13.8632 17.5128 14.1782 17.8968C13.2955 17.9592 11.6518 18.1528 10.4526 18.9184C9.31421 19.6248 9 20.584 9 21.2872C9 22.7592 10.3263 24.1688 13.1692 24.1688C16.5805 24.1688 18.2211 22.2472 18.2211 20.3904C18.2211 19.0472 17.5271 18.344 16.6421 17.5752ZM11.8437 11.7528C11.8437 10.344 12.6639 9.7032 13.5489 9.7032C15.1895 9.7032 16.0745 11.944 16.0745 13.2248C16.0745 14.8872 14.7482 15.2096 14.2429 15.2096C12.6639 15.2096 11.8437 13.2248 11.8437 11.7528ZM14.1158 23.272C12.0316 23.272 10.7053 22.3128 10.7053 20.9032C10.7053 19.4968 11.97 19.0472 12.3458 18.856C13.1692 18.6 14.2429 18.5376 14.4308 18.5376H14.8745C16.3887 19.6248 17.0211 20.072 17.0211 21.0968C17.0211 22.3128 15.8218 23.272 14.1158 23.272Z" fill="#C4A676"/>
</svg>
